<svg width="20" height="20" viewBox="0 0 20 20" fill="none" xmlns="http://www.w3.org/2000/svg">
<path d="M13.7125 6.2125C13.8886 6.04486 14.1229 5.95218 14.366 5.95402C14.6091 5.95586 14.842 6.05207 15.0156 6.22236C15.1891 6.39264 15.2897 6.62368 15.2961 6.86672C15.3025 7.10975 15.2143 7.34578 15.05 7.525L10.0625 13.7625C9.97674 13.8549 9.87323 13.929 9.75816 13.9805C9.6431 14.0319 9.51884 14.0596 9.39281 14.062C9.26679 14.0643 9.14159 14.0412 9.02469 13.994C8.9078 13.9469 8.80162 13.8766 8.7125 13.7875L5.405 10.48C5.31289 10.3942 5.23901 10.2907 5.18777 10.1757C5.13653 10.0607 5.10898 9.93653 5.10676 9.81065C5.10454 9.68477 5.12769 9.55974 5.17485 9.443C5.222 9.32627 5.29218 9.22022 5.3812 9.1312C5.47022 9.04218 5.57627 8.972 5.693 8.92485C5.80974 8.87769 5.93477 8.85454 6.06065 8.85676C6.18653 8.85898 6.31067 8.88653 6.42567 8.93777C6.54067 8.98901 6.64417 9.06289 6.73 9.155L9.3475 11.7712L13.6887 6.24C13.6966 6.23037 13.7037 6.22119 13.7125 6.2125Z" fill="white"/>
</svg>
