<svg width="80" height="48" viewBox="0 0 80 48" fill="none" xmlns="http://www.w3.org/2000/svg">
<path fill-rule="evenodd" clip-rule="evenodd" d="M61 38C71.4934 38 80 29.4934 80 19C80 8.50659 71.4934 0 61 0C50.5066 0 42 8.50659 42 19C42 21.2424 42.3885 23.394 43.1017 25.3913C44.7859 31.5933 51.5118 44.1946 66 48C60.8523 42.9973 59.8169 39.4363 59.9421 37.971C60.2923 37.9903 60.645 38 61 38Z" fill="#00AEEF"/>
<path fill-rule="evenodd" clip-rule="evenodd" d="M19 38C29.4934 38 38 29.4934 38 19C38 8.50659 29.4934 0 19 0C8.50659 0 0 8.50659 0 19C0 21.2424 0.388455 23.394 1.10174 25.3913C2.78587 31.5933 9.51177 44.1946 24 48C18.8523 42.9973 17.8169 39.4363 17.9421 37.971C18.2923 37.9903 18.645 38 19 38Z" fill="#00AEEF"/>
</svg>
